<?xml version="1.0" encoding="UTF-8"?>
<svg xmlns="http://www.w3.org/2000/svg" xmlns:xlink="http://www.w3.org/1999/xlink" width="350px" height="350px" viewBox="0 0 350 350" version="1.1">
<g id="surface1">
<path style=" stroke:none;fill-rule:nonzero;fill:rgb(18.431373%,32.941176%,92.156863%);fill-opacity:1;" d="M 32.8125 175 C 32.8125 168.394531 38.167969 163.039062 44.773438 163.039062 C 51.382812 163.039062 56.738281 168.394531 56.738281 175 C 56.738281 240.3125 109.6875 293.261719 175 293.261719 C 240.3125 293.261719 293.261719 240.3125 293.261719 175 C 293.261719 109.6875 240.3125 56.738281 175 56.738281 C 168.394531 56.738281 163.039062 51.382812 163.039062 44.773438 C 163.039062 38.167969 168.394531 32.8125 175 32.8125 C 253.527344 32.8125 317.1875 96.472656 317.1875 175 C 317.1875 253.527344 253.527344 317.1875 175 317.1875 C 96.472656 317.1875 32.8125 253.527344 32.8125 175 Z M 32.8125 175 "/>
</g>
</svg>
